solid
  facet normal -1.0000000E+00 +2.1344908E-16 +1.1189392E-15
    outer loop      
      vertex   -1.0000000E+02 +0.0000000E+00 +0.0000000E+00
      vertex   -1.0000000E+02 +3.1333308E+00 +2.4802867E+01
      vertex   -1.0000000E+02 +6.2172471E+00 +2.4214579E+01
    endloop
  endfacet
  facet normal -1.0000000E+00 +3.5200625E-16 +1.0833638E-15
    outer loop      
      vertex   -1.0000000E+02 +6.2172471E+00 +2.4214579E+01
      vertex   -1.0000000E+02 +9.2031138E+00 +2.3244412E+01
      vertex   -1.0000000E+02 +0.0000000E+00 +0.0000000E+00
    endloop
  endfacet
  facet normal -1.0000000E+00 +4.8501207E-16 +1.0307031E-15
    outer loop      
      vertex   -1.0000000E+02 +9.2031138E+00 +2.3244412E+01
      vertex   -1.0000000E+02 +1.2043841E+01 +2.1907667E+01
      vertex   -1.0000000E+02 +0.0000000E+00 +0.0000000E+00
    endloop
  endfacet
  facet normal -1.0000000E+00 +6.1036896E-16 +9.6178758E-16
    outer loop      
      vertex   -1.0000000E+02 +1.2043841E+01 +2.1907667E+01
      vertex   -1.0000000E+02 +1.4694631E+01 +2.0225424E+01
      vertex   -1.0000000E+02 +0.0000000E+00 +0.0000000E+00
    endloop
  endfacet
  facet normal -1.0000000E+00 +7.2609996E-16 +8.7770408E-16
    outer loop      
      vertex   -1.0000000E+02 +1.4694631E+01 +2.0225424E+01
      vertex   -1.0000000E+02 +1.7113677E+01 +1.8224215E+01
      vertex   -1.0000000E+02 +0.0000000E+00 +0.0000000E+00
    endloop
  endfacet
  facet normal -1.0000000E+00 +8.3037994E-16 +7.7977867E-16
    outer loop      
      vertex   -1.0000000E+02 +1.7113677E+01 +1.8224215E+01
      vertex   -1.0000000E+02 +1.9262831E+01 +1.5935599E+01
      vertex   -1.0000000E+02 +0.0000000E+00 +0.0000000E+00
    endloop
  endfacet
  facet normal -1.0000000E+00 -1.9693974E-15 +4.1641281E-15
    outer loop      
      vertex   -1.0000000E+02 +1.9262831E+01 +1.5935599E+01
      vertex   -1.0000000E+02 +2.1108198E+01 +1.3395669E+01
      vertex   -1.0000000E+02 +0.0000000E+00 +0.0000000E+00
    endloop
  endfacet
  facet normal -1.0000000E+00 +4.9910755E-16 +2.7438669E-16
    outer loop      
      vertex   -1.0000000E+02 +2.1108198E+01 +1.3395669E+01
      vertex   -1.0000000E+02 +2.2620676E+01 +1.0644482E+01
      vertex   -1.0000000E+02 +0.0000000E+00 +0.0000000E+00
    endloop
  endfacet
  facet normal -1.0000000E+00 +5.2956171E-16 +2.0966831E-16
    outer loop      
      vertex   -1.0000000E+02 +2.2620676E+01 +1.0644482E+01
      vertex   -1.0000000E+02 +2.3776412E+01 +7.7254248E+00
      vertex   -1.0000000E+02 +0.0000000E+00 +0.0000000E+00
    endloop
  endfacet
  facet normal -1.0000000E+00 +5.5166436E-16 +1.4164333E-16
    outer loop      
      vertex   -1.0000000E+02 +2.3776412E+01 +7.7254248E+00
      vertex   -1.0000000E+02 +2.4557181E+01 +4.6845328E+00
      vertex   -1.0000000E+02 +0.0000000E+00 +0.0000000E+00
    endloop
  endfacet
  facet normal -1.0000000E+00 +5.6506694E-16 +7.1384556E-17
    outer loop      
      vertex   -1.0000000E+02 +2.4557181E+01 +4.6845328E+00
      vertex   -1.0000000E+02 +2.4950668E+01 +1.5697629E+00
      vertex   -1.0000000E+02 +0.0000000E+00 +0.0000000E+00
    endloop
  endfacet
  facet normal -1.0000000E+00 +5.6955808E-16 +0.0000000E+00
    outer loop      
      vertex   -1.0000000E+02 +2.4950668E+01 +1.5697629E+00
      vertex   -1.0000000E+02 +2.4950668E+01 -1.5697629E+00
      vertex   -1.0000000E+02 +0.0000000E+00 +0.0000000E+00
    endloop
  endfacet
  facet normal -1.0000000E+00 +5.6506694E-16 -7.1384556E-17
    outer loop      
      vertex   -1.0000000E+02 +2.4950668E+01 -1.5697629E+00
      vertex   -1.0000000E+02 +2.4557181E+01 -4.6845328E+00
      vertex   -1.0000000E+02 +0.0000000E+00 +0.0000000E+00
    endloop
  endfacet
  facet normal -1.0000000E+00 +5.5166436E-16 -1.4164333E-16
    outer loop      
      vertex   -1.0000000E+02 +2.4557181E+01 -4.6845328E+00
      vertex   -1.0000000E+02 +2.3776412E+01 -7.7254248E+00
      vertex   -1.0000000E+02 +0.0000000E+00 +0.0000000E+00
    endloop
  endfacet
  facet normal -1.0000000E+00 +5.2956171E-16 -2.0966831E-16
    outer loop      
      vertex   -1.0000000E+02 +2.3776412E+01 -7.7254248E+00
      vertex   -1.0000000E+02 +2.2620676E+01 -1.0644482E+01
      vertex   -1.0000000E+02 +0.0000000E+00 +0.0000000E+00
    endloop
  endfacet
  facet normal -1.0000000E+00 +4.9910755E-16 -2.7438669E-16
    outer loop      
      vertex   -1.0000000E+02 +2.2620676E+01 -1.0644482E+01
      vertex   -1.0000000E+02 +2.1108198E+01 -1.3395669E+01
      vertex   -1.0000000E+02 +0.0000000E+00 +0.0000000E+00
    endloop
  endfacet
  facet normal -1.0000000E+00 +2.8909617E-15 +3.4945724E-15
    outer loop      
      vertex   -1.0000000E+02 +2.1108198E+01 -1.3395669E+01
      vertex   -1.0000000E+02 +1.9262831E+01 -1.5935599E+01
      vertex   -1.0000000E+02 +0.0000000E+00 +0.0000000E+00
    endloop
  endfacet
  facet normal -1.0000000E+00 +0.0000000E+00 +0.0000000E+00
    outer loop      
      vertex   -1.0000000E+02 +1.9262831E+01 -1.5935599E+01
      vertex   -1.0000000E+02 +1.7113677E+01 -1.8224215E+01
      vertex   -1.0000000E+02 +0.0000000E+00 +0.0000000E+00
    endloop
  endfacet
  facet normal -1.0000000E+00 +0.0000000E+00 +0.0000000E+00
    outer loop      
      vertex   -1.0000000E+02 +1.7113677E+01 -1.8224215E+01
      vertex   -1.0000000E+02 +1.4694631E+01 -2.0225424E+01
      vertex   -1.0000000E+02 +0.0000000E+00 +0.0000000E+00
    endloop
  endfacet
  facet normal -1.0000000E+00 +0.0000000E+00 +0.0000000E+00
    outer loop      
      vertex   -1.0000000E+02 +1.4694631E+01 -2.0225424E+01
      vertex   -1.0000000E+02 +1.2043841E+01 -2.1907667E+01
      vertex   -1.0000000E+02 +0.0000000E+00 +0.0000000E+00
    endloop
  endfacet
  facet normal -1.0000000E+00 +0.0000000E+00 +0.0000000E+00
    outer loop      
      vertex   -1.0000000E+02 +1.2043841E+01 -2.1907667E+01
      vertex   -1.0000000E+02 +9.2031138E+00 -2.3244412E+01
      vertex   -1.0000000E+02 +0.0000000E+00 +0.0000000E+00
    endloop
  endfacet
  facet normal -1.0000000E+00 +0.0000000E+00 +0.0000000E+00
    outer loop      
      vertex   -1.0000000E+02 +9.2031138E+00 -2.3244412E+01
      vertex   -1.0000000E+02 +6.2172471E+00 -2.4214579E+01
      vertex   -1.0000000E+02 +0.0000000E+00 +0.0000000E+00
    endloop
  endfacet
  facet normal -1.0000000E+00 +0.0000000E+00 +0.0000000E+00
    outer loop      
      vertex   -1.0000000E+02 +6.2172471E+00 -2.4214579E+01
      vertex   -1.0000000E+02 +3.1333308E+00 -2.4802867E+01
      vertex   -1.0000000E+02 +0.0000000E+00 +0.0000000E+00
    endloop
  endfacet
  facet normal -1.0000000E-00 +0.0000000E+00 +0.0000000E+00
    outer loop      
      vertex   -1.0000000E+02 +3.1333308E+00 -2.4802867E+01
      vertex   -1.0000000E+02 +0.0000000E+00 -2.5000000E+01
      vertex   -1.0000000E+02 +0.0000000E+00 +0.0000000E+00
    endloop
  endfacet
  facet normal -1.0000000E-00 +0.0000000E+00 +0.0000000E+00
    outer loop      
      vertex   -1.0000000E+02 +0.0000000E+00 -2.5000000E+01
      vertex   -1.0000000E+02 -3.1333308E+00 -2.4802867E+01
      vertex   -1.0000000E+02 +0.0000000E+00 +0.0000000E+00
    endloop
  endfacet
  facet normal -1.0000000E+00 +0.0000000E+00 +0.0000000E+00
    outer loop      
      vertex   -1.0000000E+02 -3.1333308E+00 -2.4802867E+01
      vertex   -1.0000000E+02 -6.2172471E+00 -2.4214579E+01
      vertex   -1.0000000E+02 +0.0000000E+00 +0.0000000E+00
    endloop
  endfacet
  facet normal -1.0000000E+00 +0.0000000E+00 +0.0000000E+00
    outer loop      
      vertex   -1.0000000E+02 -6.2172471E+00 -2.4214579E+01
      vertex   -1.0000000E+02 -9.2031138E+00 -2.3244412E+01
      vertex   -1.0000000E+02 +0.0000000E+00 +0.0000000E+00
    endloop
  endfacet
  facet normal -1.0000000E+00 +0.0000000E+00 +0.0000000E+00
    outer loop      
      vertex   -1.0000000E+02 -9.2031138E+00 -2.3244412E+01
      vertex   -1.0000000E+02 -1.2043841E+01 -2.1907667E+01
      vertex   -1.0000000E+02 +0.0000000E+00 +0.0000000E+00
    endloop
  endfacet
  facet normal -1.0000000E+00 +0.0000000E+00 +0.0000000E+00
    outer loop      
      vertex   -1.0000000E+02 -1.2043841E+01 -2.1907667E+01
      vertex   -1.0000000E+02 -1.4694631E+01 -2.0225424E+01
      vertex   -1.0000000E+02 +0.0000000E+00 +0.0000000E+00
    endloop
  endfacet
  facet normal -1.0000000E+00 +0.0000000E+00 +0.0000000E+00
    outer loop      
      vertex   -1.0000000E+02 -1.4694631E+01 -2.0225424E+01
      vertex   -1.0000000E+02 -1.7113677E+01 -1.8224215E+01
      vertex   -1.0000000E+02 +0.0000000E+00 +0.0000000E+00
    endloop
  endfacet
  facet normal -1.0000000E+00 +0.0000000E+00 +0.0000000E+00
    outer loop      
      vertex   -1.0000000E+02 -1.7113677E+01 -1.8224215E+01
      vertex   -1.0000000E+02 -1.9262831E+01 -1.5935599E+01
      vertex   -1.0000000E+02 +0.0000000E+00 +0.0000000E+00
    endloop
  endfacet
  facet normal -1.0000000E+00 -2.8909617E-15 +3.4945724E-15
    outer loop      
      vertex   -1.0000000E+02 -1.9262831E+01 -1.5935599E+01
      vertex   -1.0000000E+02 -2.1108198E+01 -1.3395669E+01
      vertex   -1.0000000E+02 +0.0000000E+00 +0.0000000E+00
    endloop
  endfacet
  facet normal -1.0000000E+00 -4.9910755E-16 -2.7438669E-16
    outer loop      
      vertex   -1.0000000E+02 -2.1108198E+01 -1.3395669E+01
      vertex   -1.0000000E+02 -2.2620676E+01 -1.0644482E+01
      vertex   -1.0000000E+02 +0.0000000E+00 +0.0000000E+00
    endloop
  endfacet
  facet normal -1.0000000E+00 -5.2956171E-16 -2.0966831E-16
    outer loop      
      vertex   -1.0000000E+02 -2.2620676E+01 -1.0644482E+01
      vertex   -1.0000000E+02 -2.3776412E+01 -7.7254248E+00
      vertex   -1.0000000E+02 +0.0000000E+00 +0.0000000E+00
    endloop
  endfacet
  facet normal -1.0000000E+00 -5.5166436E-16 -1.4164333E-16
    outer loop      
      vertex   -1.0000000E+02 -2.3776412E+01 -7.7254248E+00
      vertex   -1.0000000E+02 -2.4557181E+01 -4.6845328E+00
      vertex   -1.0000000E+02 +0.0000000E+00 +0.0000000E+00
    endloop
  endfacet
  facet normal -1.0000000E+00 -5.6506694E-16 -7.1384556E-17
    outer loop      
      vertex   -1.0000000E+02 -2.4557181E+01 -4.6845328E+00
      vertex   -1.0000000E+02 -2.4950668E+01 -1.5697629E+00
      vertex   -1.0000000E+02 +0.0000000E+00 +0.0000000E+00
    endloop
  endfacet
  facet normal -1.0000000E+00 -5.6955808E-16 +0.0000000E+00
    outer loop      
      vertex   -1.0000000E+02 -2.4950668E+01 -1.5697629E+00
      vertex   -1.0000000E+02 -2.4950668E+01 +1.5697629E+00
      vertex   -1.0000000E+02 +0.0000000E+00 +0.0000000E+00
    endloop
  endfacet
  facet normal -1.0000000E+00 -5.6506694E-16 +7.1384556E-17
    outer loop      
      vertex   -1.0000000E+02 -2.4950668E+01 +1.5697629E+00
      vertex   -1.0000000E+02 -2.4557181E+01 +4.6845328E+00
      vertex   -1.0000000E+02 +0.0000000E+00 +0.0000000E+00
    endloop
  endfacet
  facet normal -1.0000000E-00 -5.5166436E-16 +1.4164333E-16
    outer loop      
      vertex   -1.0000000E+02 -2.4557181E+01 +4.6845328E+00
      vertex   -1.0000000E+02 -2.3776412E+01 +7.7254248E+00
      vertex   -1.0000000E+02 +0.0000000E+00 +0.0000000E+00
    endloop
  endfacet
  facet normal -1.0000000E+00 -5.2956171E-16 +2.0966831E-16
    outer loop      
      vertex   -1.0000000E+02 -2.3776412E+01 +7.7254248E+00
      vertex   -1.0000000E+02 -2.2620676E+01 +1.0644482E+01
      vertex   -1.0000000E+02 +0.0000000E+00 +0.0000000E+00
    endloop
  endfacet
  facet normal -1.0000000E+00 -4.9910755E-16 +2.7438669E-16
    outer loop      
      vertex   -1.0000000E+02 -2.2620676E+01 +1.0644482E+01
      vertex   -1.0000000E+02 -2.1108198E+01 +1.3395669E+01
      vertex   -1.0000000E+02 +0.0000000E+00 +0.0000000E+00
    endloop
  endfacet
  facet normal -1.0000000E+00 +1.9693974E-15 +4.1641281E-15
    outer loop      
      vertex   -1.0000000E+02 -2.1108198E+01 +1.3395669E+01
      vertex   -1.0000000E+02 -1.9262831E+01 +1.5935599E+01
      vertex   -1.0000000E+02 +0.0000000E+00 +0.0000000E+00
    endloop
  endfacet
  facet normal -1.0000000E+00 -8.3037994E-16 +7.7977867E-16
    outer loop      
      vertex   -1.0000000E+02 -1.9262831E+01 +1.5935599E+01
      vertex   -1.0000000E+02 -1.7113677E+01 +1.8224215E+01
      vertex   -1.0000000E+02 +0.0000000E+00 +0.0000000E+00
    endloop
  endfacet
  facet normal -1.0000000E+00 -7.2609996E-16 +8.7770408E-16
    outer loop      
      vertex   -1.0000000E+02 -1.7113677E+01 +1.8224215E+01
      vertex   -1.0000000E+02 -1.4694631E+01 +2.0225424E+01
      vertex   -1.0000000E+02 +0.0000000E+00 +0.0000000E+00
    endloop
  endfacet
  facet normal -1.0000000E+00 -6.1036896E-16 +9.6178758E-16
    outer loop      
      vertex   -1.0000000E+02 -1.4694631E+01 +2.0225424E+01
      vertex   -1.0000000E+02 -1.2043841E+01 +2.1907667E+01
      vertex   -1.0000000E+02 +0.0000000E+00 +0.0000000E+00
    endloop
  endfacet
  facet normal -1.0000000E+00 -4.8501207E-16 +1.0307031E-15
    outer loop      
      vertex   -1.0000000E+02 -1.2043841E+01 +2.1907667E+01
      vertex   -1.0000000E+02 -9.2031138E+00 +2.3244412E+01
      vertex   -1.0000000E+02 +0.0000000E+00 +0.0000000E+00
    endloop
  endfacet
  facet normal -1.0000000E-00 -3.5200625E-16 +1.0833638E-15
    outer loop      
      vertex   -1.0000000E+02 -9.2031138E+00 +2.3244412E+01
      vertex   -1.0000000E+02 -6.2172471E+00 +2.4214579E+01
      vertex   -1.0000000E+02 +0.0000000E+00 +0.0000000E+00
    endloop
  endfacet
  facet normal -1.0000000E+00 -2.1344908E-16 +1.1189392E-15
    outer loop      
      vertex   -1.0000000E+02 -6.2172471E+00 +2.4214579E+01
      vertex   -1.0000000E+02 -3.1333308E+00 +2.4802867E+01
      vertex   -1.0000000E+02 +0.0000000E+00 +0.0000000E+00
    endloop
  endfacet
  facet normal -1.0000000E+00 -7.1525695E-17 +1.1368683E-15
    outer loop      
      vertex   -1.0000000E+02 -3.1333308E+00 +2.4802867E+01
      vertex   -1.0000000E+02 +0.0000000E+00 +2.5000000E+01
      vertex   -1.0000000E+02 +0.0000000E+00 +0.0000000E+00
    endloop
  endfacet
  facet normal -1.0000000E+00 +7.1525695E-17 +1.1368683E-15
    outer loop      
      vertex   -1.0000000E+02 +0.0000000E+00 +2.5000000E+01
      vertex   -1.0000000E+02 +3.1333308E+00 +2.4802867E+01
      vertex   -1.0000000E+02 +0.0000000E+00 +0.0000000E+00
    endloop
  endfacet
  facet normal +0.0000000E+00 +6.2790519E-02 +9.9802672E-01
    outer loop      
      vertex   -1.0000000E+02 +0.0000000E+00 +2.5000000E+01
      vertex   +0.0000000E+00 +0.0000000E+00 +2.5000000E+01
      vertex   +0.0000000E+00 +3.1333308E+00 +2.4802867E+01
    endloop
  endfacet
  facet normal +0.0000000E+00 +1.8738131E-01 +9.8228725E-01
    outer loop      
      vertex   -1.0000000E+02 +3.1333308E+00 +2.4802867E+01
      vertex   +0.0000000E+00 +3.1333308E+00 +2.4802867E+01
      vertex   +0.0000000E+00 +6.2172471E+00 +2.4214579E+01
    endloop
  endfacet
  facet normal +0.0000000E+00 +3.0901699E-01 +9.5105651E-01
    outer loop      
      vertex   -1.0000000E+02 +6.2172471E+00 +2.4214579E+01
      vertex   +0.0000000E+00 +6.2172471E+00 +2.4214579E+01
      vertex   +0.0000000E+00 +9.2031138E+00 +2.3244412E+01
    endloop
  endfacet
  facet normal +0.0000000E+00 +4.2577929E-01 +9.0482705E-01
    outer loop      
      vertex   -1.0000000E+02 +9.2031138E+00 +2.3244412E+01
      vertex   +0.0000000E+00 +9.2031138E+00 +2.3244412E+01
      vertex   +0.0000000E+00 +1.2043841E+01 +2.1907667E+01
    endloop
  endfacet
  facet normal +0.0000000E+00 +5.3582679E-01 +8.4432792E-01
    outer loop      
      vertex   -1.0000000E+02 +1.2043841E+01 +2.1907667E+01
      vertex   +0.0000000E+00 +1.2043841E+01 +2.1907667E+01
      vertex   +0.0000000E+00 +1.4694631E+01 +2.0225424E+01
    endloop
  endfacet
  facet normal +0.0000000E+00 +6.3742398E-01 +7.7051324E-01
    outer loop      
      vertex   -1.0000000E+02 +1.4694631E+01 +2.0225424E+01
      vertex   +0.0000000E+00 +1.4694631E+01 +2.0225424E+01
      vertex   +0.0000000E+00 +1.7113677E+01 +1.8224215E+01
    endloop
  endfacet
  facet normal +0.0000000E+00 +7.2896862E-01 +6.8454710E-01
    outer loop      
      vertex   -1.0000000E+02 +1.7113677E+01 +1.8224215E+01
      vertex   +0.0000000E+00 +1.7113677E+01 +1.8224215E+01
      vertex   +0.0000000E+00 +1.9262831E+01 +1.5935599E+01
    endloop
  endfacet
  facet normal +0.0000000E+00 +8.0901699E-01 +5.8778525E-01
    outer loop      
      vertex   -1.0000000E+02 +1.9262831E+01 +1.5935599E+01
      vertex   +0.0000000E+00 +1.9262831E+01 +1.5935599E+01
      vertex   +0.0000000E+00 +2.1108198E+01 +1.3395669E+01
    endloop
  endfacet
  facet normal +0.0000000E+00 +8.7630668E-01 +4.8175367E-01
    outer loop      
      vertex   -1.0000000E+02 +2.1108198E+01 +1.3395669E+01
      vertex   +0.0000000E+00 +2.1108198E+01 +1.3395669E+01
      vertex   +0.0000000E+00 +2.2620676E+01 +1.0644482E+01
    endloop
  endfacet
  facet normal +0.0000000E+00 +9.2977648E-01 +3.6812455E-01
    outer loop      
      vertex   -1.0000000E+02 +2.2620676E+01 +1.0644482E+01
      vertex   +0.0000000E+00 +2.2620676E+01 +1.0644482E+01
      vertex   +0.0000000E+00 +2.3776412E+01 +7.7254248E+00
    endloop
  endfacet
  facet normal +0.0000000E+00 +9.6858316E-01 +2.4868988E-01
    outer loop      
      vertex   -1.0000000E+02 +2.3776412E+01 +7.7254248E+00
      vertex   +0.0000000E+00 +2.3776412E+01 +7.7254248E+00
      vertex   +0.0000000E+00 +2.4557181E+01 +4.6845328E+00
    endloop
  endfacet
  facet normal +0.0000000E+00 +9.9211470E-01 +1.2533323E-01
    outer loop      
      vertex   -1.0000000E+02 +2.4557181E+01 +4.6845328E+00
      vertex   +0.0000000E+00 +2.4557181E+01 +4.6845328E+00
      vertex   +0.0000000E+00 +2.4950668E+01 +1.5697629E+00
    endloop
  endfacet
  facet normal +0.0000000E+00 +1.0000000E+00 +0.0000000E+00
    outer loop      
      vertex   -1.0000000E+02 +2.4950668E+01 +1.5697629E+00
      vertex   +0.0000000E+00 +2.4950668E+01 +1.5697629E+00
      vertex   +0.0000000E+00 +2.4950668E+01 -1.5697629E+00
    endloop
  endfacet
  facet normal +0.0000000E+00 +9.9211470E-01 -1.2533323E-01
    outer loop      
      vertex   -1.0000000E+02 +2.4950668E+01 -1.5697629E+00
      vertex   +0.0000000E+00 +2.4950668E+01 -1.5697629E+00
      vertex   +0.0000000E+00 +2.4557181E+01 -4.6845328E+00
    endloop
  endfacet
  facet normal +0.0000000E+00 +9.6858316E-01 -2.4868988E-01
    outer loop      
      vertex   -1.0000000E+02 +2.4557181E+01 -4.6845328E+00
      vertex   +0.0000000E+00 +2.4557181E+01 -4.6845328E+00
      vertex   +0.0000000E+00 +2.3776412E+01 -7.7254248E+00
    endloop
  endfacet
  facet normal +0.0000000E+00 +9.2977648E-01 -3.6812455E-01
    outer loop      
      vertex   -1.0000000E+02 +2.3776412E+01 -7.7254248E+00
      vertex   +0.0000000E+00 +2.3776412E+01 -7.7254248E+00
      vertex   +0.0000000E+00 +2.2620676E+01 -1.0644482E+01
    endloop
  endfacet
  facet normal +0.0000000E+00 +8.7630668E-01 -4.8175367E-01
    outer loop      
      vertex   -1.0000000E+02 +2.2620676E+01 -1.0644482E+01
      vertex   +0.0000000E+00 +2.2620676E+01 -1.0644482E+01
      vertex   +0.0000000E+00 +2.1108198E+01 -1.3395669E+01
    endloop
  endfacet
  facet normal +0.0000000E+00 +8.0901699E-01 -5.8778525E-01
    outer loop      
      vertex   -1.0000000E+02 +2.1108198E+01 -1.3395669E+01
      vertex   +0.0000000E+00 +2.1108198E+01 -1.3395669E+01
      vertex   +0.0000000E+00 +1.9262831E+01 -1.5935599E+01
    endloop
  endfacet
  facet normal +0.0000000E+00 +7.2896862E-01 -6.8454710E-01
    outer loop      
      vertex   -1.0000000E+02 +1.9262831E+01 -1.5935599E+01
      vertex   +0.0000000E+00 +1.9262831E+01 -1.5935599E+01
      vertex   +0.0000000E+00 +1.7113677E+01 -1.8224215E+01
    endloop
  endfacet
  facet normal +0.0000000E+00 +6.3742398E-01 -7.7051324E-01
    outer loop      
      vertex   -1.0000000E+02 +1.7113677E+01 -1.8224215E+01
      vertex   +0.0000000E+00 +1.7113677E+01 -1.8224215E+01
      vertex   +0.0000000E+00 +1.4694631E+01 -2.0225424E+01
    endloop
  endfacet
  facet normal +0.0000000E+00 +5.3582679E-01 -8.4432792E-01
    outer loop      
      vertex   -1.0000000E+02 +1.4694631E+01 -2.0225424E+01
      vertex   +0.0000000E+00 +1.4694631E+01 -2.0225424E+01
      vertex   +0.0000000E+00 +1.2043841E+01 -2.1907667E+01
    endloop
  endfacet
  facet normal +0.0000000E+00 +4.2577929E-01 -9.0482705E-01
    outer loop      
      vertex   -1.0000000E+02 +1.2043841E+01 -2.1907667E+01
      vertex   +0.0000000E+00 +1.2043841E+01 -2.1907667E+01
      vertex   +0.0000000E+00 +9.2031138E+00 -2.3244412E+01
    endloop
  endfacet
  facet normal +0.0000000E+00 +3.0901699E-01 -9.5105651E-01
    outer loop      
      vertex   -1.0000000E+02 +9.2031138E+00 -2.3244412E+01
      vertex   +0.0000000E+00 +9.2031138E+00 -2.3244412E+01
      vertex   +0.0000000E+00 +6.2172471E+00 -2.4214579E+01
    endloop
  endfacet
  facet normal +0.0000000E+00 +1.8738131E-01 -9.8228725E-01
    outer loop      
      vertex   -1.0000000E+02 +6.2172471E+00 -2.4214579E+01
      vertex   +0.0000000E+00 +6.2172471E+00 -2.4214579E+01
      vertex   +0.0000000E+00 +3.1333308E+00 -2.4802867E+01
    endloop
  endfacet
  facet normal +0.0000000E+00 +6.2790519E-02 -9.9802672E-01
    outer loop      
      vertex   -1.0000000E+02 +3.1333308E+00 -2.4802867E+01
      vertex   +0.0000000E+00 +3.1333308E+00 -2.4802867E+01
      vertex   +0.0000000E+00 +0.0000000E+00 -2.5000000E+01
    endloop
  endfacet
  facet normal +0.0000000E+00 -6.2790519E-02 -9.9802672E-01
    outer loop      
      vertex   -1.0000000E+02 +0.0000000E+00 -2.5000000E+01
      vertex   +0.0000000E+00 +0.0000000E+00 -2.5000000E+01
      vertex   +0.0000000E+00 -3.1333308E+00 -2.4802867E+01
    endloop
  endfacet
  facet normal +0.0000000E+00 -1.8738131E-01 -9.8228725E-01
    outer loop      
      vertex   -1.0000000E+02 -3.1333308E+00 -2.4802867E+01
      vertex   +0.0000000E+00 -3.1333308E+00 -2.4802867E+01
      vertex   +0.0000000E+00 -6.2172471E+00 -2.4214579E+01
    endloop
  endfacet
  facet normal +0.0000000E+00 -3.0901699E-01 -9.5105651E-01
    outer loop      
      vertex   -1.0000000E+02 -6.2172471E+00 -2.4214579E+01
      vertex   +0.0000000E+00 -6.2172471E+00 -2.4214579E+01
      vertex   +0.0000000E+00 -9.2031138E+00 -2.3244412E+01
    endloop
  endfacet
  facet normal +0.0000000E+00 -4.2577929E-01 -9.0482705E-01
    outer loop      
      vertex   -1.0000000E+02 -9.2031138E+00 -2.3244412E+01
      vertex   +0.0000000E+00 -9.2031138E+00 -2.3244412E+01
      vertex   +0.0000000E+00 -1.2043841E+01 -2.1907667E+01
    endloop
  endfacet
  facet normal +0.0000000E+00 -5.3582679E-01 -8.4432792E-01
    outer loop      
      vertex   -1.0000000E+02 -1.2043841E+01 -2.1907667E+01
      vertex   +0.0000000E+00 -1.2043841E+01 -2.1907667E+01
      vertex   +0.0000000E+00 -1.4694631E+01 -2.0225424E+01
    endloop
  endfacet
  facet normal +0.0000000E+00 -6.3742398E-01 -7.7051324E-01
    outer loop      
      vertex   -1.0000000E+02 -1.4694631E+01 -2.0225424E+01
      vertex   +0.0000000E+00 -1.4694631E+01 -2.0225424E+01
      vertex   +0.0000000E+00 -1.7113677E+01 -1.8224215E+01
    endloop
  endfacet
  facet normal +0.0000000E+00 -7.2896862E-01 -6.8454710E-01
    outer loop      
      vertex   -1.0000000E+02 -1.7113677E+01 -1.8224215E+01
      vertex   +0.0000000E+00 -1.7113677E+01 -1.8224215E+01
      vertex   +0.0000000E+00 -1.9262831E+01 -1.5935599E+01
    endloop
  endfacet
  facet normal +0.0000000E+00 -8.0901699E-01 -5.8778525E-01
    outer loop      
      vertex   -1.0000000E+02 -1.9262831E+01 -1.5935599E+01
      vertex   +0.0000000E+00 -1.9262831E+01 -1.5935599E+01
      vertex   +0.0000000E+00 -2.1108198E+01 -1.3395669E+01
    endloop
  endfacet
  facet normal +0.0000000E+00 -8.7630668E-01 -4.8175367E-01
    outer loop      
      vertex   -1.0000000E+02 -2.1108198E+01 -1.3395669E+01
      vertex   +0.0000000E+00 -2.1108198E+01 -1.3395669E+01
      vertex   +0.0000000E+00 -2.2620676E+01 -1.0644482E+01
    endloop
  endfacet
  facet normal +0.0000000E+00 -9.2977648E-01 -3.6812455E-01
    outer loop      
      vertex   -1.0000000E+02 -2.2620676E+01 -1.0644482E+01
      vertex   +0.0000000E+00 -2.2620676E+01 -1.0644482E+01
      vertex   +0.0000000E+00 -2.3776412E+01 -7.7254248E+00
    endloop
  endfacet
  facet normal +0.0000000E+00 -9.6858316E-01 -2.4868988E-01
    outer loop      
      vertex   -1.0000000E+02 -2.3776412E+01 -7.7254248E+00
      vertex   +0.0000000E+00 -2.3776412E+01 -7.7254248E+00
      vertex   +0.0000000E+00 -2.4557181E+01 -4.6845328E+00
    endloop
  endfacet
  facet normal +0.0000000E+00 -9.9211470E-01 -1.2533323E-01
    outer loop      
      vertex   -1.0000000E+02 -2.4557181E+01 -4.6845328E+00
      vertex   +0.0000000E+00 -2.4557181E+01 -4.6845328E+00
      vertex   +0.0000000E+00 -2.4950668E+01 -1.5697629E+00
    endloop
  endfacet
  facet normal +0.0000000E+00 -1.0000000E+00 +0.0000000E+00
    outer loop      
      vertex   -1.0000000E+02 -2.4950668E+01 -1.5697629E+00
      vertex   +0.0000000E+00 -2.4950668E+01 -1.5697629E+00
      vertex   +0.0000000E+00 -2.4950668E+01 +1.5697629E+00
    endloop
  endfacet
  facet normal +0.0000000E+00 -9.9211470E-01 +1.2533323E-01
    outer loop      
      vertex   -1.0000000E+02 -2.4950668E+01 +1.5697629E+00
      vertex   +0.0000000E+00 -2.4950668E+01 +1.5697629E+00
      vertex   +0.0000000E+00 -2.4557181E+01 +4.6845328E+00
    endloop
  endfacet
  facet normal +0.0000000E+00 -9.6858316E-01 +2.4868988E-01
    outer loop      
      vertex   -1.0000000E+02 -2.4557181E+01 +4.6845328E+00
      vertex   +0.0000000E+00 -2.4557181E+01 +4.6845328E+00
      vertex   +0.0000000E+00 -2.3776412E+01 +7.7254248E+00
    endloop
  endfacet
  facet normal +0.0000000E+00 -9.2977648E-01 +3.6812455E-01
    outer loop      
      vertex   -1.0000000E+02 -2.3776412E+01 +7.7254248E+00
      vertex   +0.0000000E+00 -2.3776412E+01 +7.7254248E+00
      vertex   +0.0000000E+00 -2.2620676E+01 +1.0644482E+01
    endloop
  endfacet
  facet normal +0.0000000E+00 -8.7630668E-01 +4.8175367E-01
    outer loop      
      vertex   -1.0000000E+02 -2.2620676E+01 +1.0644482E+01
      vertex   +0.0000000E+00 -2.2620676E+01 +1.0644482E+01
      vertex   +0.0000000E+00 -2.1108198E+01 +1.3395669E+01
    endloop
  endfacet
  facet normal +0.0000000E+00 -8.0901699E-01 +5.8778525E-01
    outer loop      
      vertex   -1.0000000E+02 -2.1108198E+01 +1.3395669E+01
      vertex   +0.0000000E+00 -2.1108198E+01 +1.3395669E+01
      vertex   +0.0000000E+00 -1.9262831E+01 +1.5935599E+01
    endloop
  endfacet
  facet normal +0.0000000E+00 -7.2896862E-01 +6.8454710E-01
    outer loop      
      vertex   -1.0000000E+02 -1.9262831E+01 +1.5935599E+01
      vertex   +0.0000000E+00 -1.9262831E+01 +1.5935599E+01
      vertex   +0.0000000E+00 -1.7113677E+01 +1.8224215E+01
    endloop
  endfacet
  facet normal +0.0000000E+00 -6.3742398E-01 +7.7051324E-01
    outer loop      
      vertex   -1.0000000E+02 -1.7113677E+01 +1.8224215E+01
      vertex   +0.0000000E+00 -1.7113677E+01 +1.8224215E+01
      vertex   +0.0000000E+00 -1.4694631E+01 +2.0225424E+01
    endloop
  endfacet
  facet normal +0.0000000E+00 -5.3582679E-01 +8.4432792E-01
    outer loop      
      vertex   -1.0000000E+02 -1.4694631E+01 +2.0225424E+01
      vertex   +0.0000000E+00 -1.4694631E+01 +2.0225424E+01
      vertex   +0.0000000E+00 -1.2043841E+01 +2.1907667E+01
    endloop
  endfacet
  facet normal +0.0000000E+00 -4.2577929E-01 +9.0482705E-01
    outer loop      
      vertex   -1.0000000E+02 -1.2043841E+01 +2.1907667E+01
      vertex   +0.0000000E+00 -1.2043841E+01 +2.1907667E+01
      vertex   +0.0000000E+00 -9.2031138E+00 +2.3244412E+01
    endloop
  endfacet
  facet normal +0.0000000E+00 -3.0901699E-01 +9.5105651E-01
    outer loop      
      vertex   -1.0000000E+02 -9.2031138E+00 +2.3244412E+01
      vertex   +0.0000000E+00 -9.2031138E+00 +2.3244412E+01
      vertex   +0.0000000E+00 -6.2172471E+00 +2.4214579E+01
    endloop
  endfacet
  facet normal +0.0000000E+00 -1.8738131E-01 +9.8228725E-01
    outer loop      
      vertex   -1.0000000E+02 -6.2172471E+00 +2.4214579E+01
      vertex   +0.0000000E+00 -6.2172471E+00 +2.4214579E+01
      vertex   +0.0000000E+00 -3.1333308E+00 +2.4802867E+01
    endloop
  endfacet
  facet normal +0.0000000E+00 -6.2790519E-02 +9.9802672E-01
    outer loop      
      vertex   -1.0000000E+02 -3.1333308E+00 +2.4802867E+01
      vertex   +0.0000000E+00 -3.1333308E+00 +2.4802867E+01
      vertex   +0.0000000E+00 +0.0000000E+00 +2.5000000E+01
    endloop
  endfacet
  facet normal +0.0000000E+00 -6.2790519E-02 +9.9802672E-01
    outer loop      
      vertex   +0.0000000E+00 +0.0000000E+00 +2.5000000E+01
      vertex   -1.0000000E+02 +0.0000000E+00 +2.5000000E+01
      vertex   -1.0000000E+02 -3.1333308E+00 +2.4802867E+01
    endloop
  endfacet
  facet normal +0.0000000E+00 -1.8738131E-01 +9.8228725E-01
    outer loop      
      vertex   +0.0000000E+00 -3.1333308E+00 +2.4802867E+01
      vertex   -1.0000000E+02 -3.1333308E+00 +2.4802867E+01
      vertex   -1.0000000E+02 -6.2172471E+00 +2.4214579E+01
    endloop
  endfacet
  facet normal +0.0000000E+00 -3.0901699E-01 +9.5105651E-01
    outer loop      
      vertex   +0.0000000E+00 -6.2172471E+00 +2.4214579E+01
      vertex   -1.0000000E+02 -6.2172471E+00 +2.4214579E+01
      vertex   -1.0000000E+02 -9.2031138E+00 +2.3244412E+01
    endloop
  endfacet
  facet normal +0.0000000E+00 -4.2577929E-01 +9.0482705E-01
    outer loop      
      vertex   +0.0000000E+00 -9.2031138E+00 +2.3244412E+01
      vertex   -1.0000000E+02 -9.2031138E+00 +2.3244412E+01
      vertex   -1.0000000E+02 -1.2043841E+01 +2.1907667E+01
    endloop
  endfacet
  facet normal +0.0000000E+00 -5.3582679E-01 +8.4432792E-01
    outer loop      
      vertex   +0.0000000E+00 -1.2043841E+01 +2.1907667E+01
      vertex   -1.0000000E+02 -1.2043841E+01 +2.1907667E+01
      vertex   -1.0000000E+02 -1.4694631E+01 +2.0225424E+01
    endloop
  endfacet
  facet normal +0.0000000E+00 -6.3742398E-01 +7.7051324E-01
    outer loop      
      vertex   +0.0000000E+00 -1.4694631E+01 +2.0225424E+01
      vertex   -1.0000000E+02 -1.4694631E+01 +2.0225424E+01
      vertex   -1.0000000E+02 -1.7113677E+01 +1.8224215E+01
    endloop
  endfacet
  facet normal +0.0000000E+00 -7.2896862E-01 +6.8454710E-01
    outer loop      
      vertex   +0.0000000E+00 -1.7113677E+01 +1.8224215E+01
      vertex   -1.0000000E+02 -1.7113677E+01 +1.8224215E+01
      vertex   -1.0000000E+02 -1.9262831E+01 +1.5935599E+01
    endloop
  endfacet
  facet normal +0.0000000E+00 -8.0901699E-01 +5.8778525E-01
    outer loop      
      vertex   +0.0000000E+00 -1.9262831E+01 +1.5935599E+01
      vertex   -1.0000000E+02 -1.9262831E+01 +1.5935599E+01
      vertex   -1.0000000E+02 -2.1108198E+01 +1.3395669E+01
    endloop
  endfacet
  facet normal +0.0000000E+00 -8.7630668E-01 +4.8175367E-01
    outer loop      
      vertex   +0.0000000E+00 -2.1108198E+01 +1.3395669E+01
      vertex   -1.0000000E+02 -2.1108198E+01 +1.3395669E+01
      vertex   -1.0000000E+02 -2.2620676E+01 +1.0644482E+01
    endloop
  endfacet
  facet normal +0.0000000E+00 -9.2977648E-01 +3.6812455E-01
    outer loop      
      vertex   +0.0000000E+00 -2.2620676E+01 +1.0644482E+01
      vertex   -1.0000000E+02 -2.2620676E+01 +1.0644482E+01
      vertex   -1.0000000E+02 -2.3776412E+01 +7.7254248E+00
    endloop
  endfacet
  facet normal +0.0000000E+00 -9.6858316E-01 +2.4868988E-01
    outer loop      
      vertex   +0.0000000E+00 -2.3776412E+01 +7.7254248E+00
      vertex   -1.0000000E+02 -2.3776412E+01 +7.7254248E+00
      vertex   -1.0000000E+02 -2.4557181E+01 +4.6845328E+00
    endloop
  endfacet
  facet normal +0.0000000E+00 -9.9211470E-01 +1.2533323E-01
    outer loop      
      vertex   +0.0000000E+00 -2.4557181E+01 +4.6845328E+00
      vertex   -1.0000000E+02 -2.4557181E+01 +4.6845328E+00
      vertex   -1.0000000E+02 -2.4950668E+01 +1.5697629E+00
    endloop
  endfacet
  facet normal +0.0000000E+00 -1.0000000E+00 +0.0000000E+00
    outer loop      
      vertex   +0.0000000E+00 -2.4950668E+01 +1.5697629E+00
      vertex   -1.0000000E+02 -2.4950668E+01 +1.5697629E+00
      vertex   -1.0000000E+02 -2.4950668E+01 -1.5697629E+00
    endloop
  endfacet
  facet normal +0.0000000E+00 -9.9211470E-01 -1.2533323E-01
    outer loop      
      vertex   +0.0000000E+00 -2.4950668E+01 -1.5697629E+00
      vertex   -1.0000000E+02 -2.4950668E+01 -1.5697629E+00
      vertex   -1.0000000E+02 -2.4557181E+01 -4.6845328E+00
    endloop
  endfacet
  facet normal +0.0000000E+00 -9.6858316E-01 -2.4868988E-01
    outer loop      
      vertex   +0.0000000E+00 -2.4557181E+01 -4.6845328E+00
      vertex   -1.0000000E+02 -2.4557181E+01 -4.6845328E+00
      vertex   -1.0000000E+02 -2.3776412E+01 -7.7254248E+00
    endloop
  endfacet
  facet normal +0.0000000E+00 -9.2977648E-01 -3.6812455E-01
    outer loop      
      vertex   +0.0000000E+00 -2.3776412E+01 -7.7254248E+00
      vertex   -1.0000000E+02 -2.3776412E+01 -7.7254248E+00
      vertex   -1.0000000E+02 -2.2620676E+01 -1.0644482E+01
    endloop
  endfacet
  facet normal +0.0000000E+00 -8.7630668E-01 -4.8175367E-01
    outer loop      
      vertex   +0.0000000E+00 -2.2620676E+01 -1.0644482E+01
      vertex   -1.0000000E+02 -2.2620676E+01 -1.0644482E+01
      vertex   -1.0000000E+02 -2.1108198E+01 -1.3395669E+01
    endloop
  endfacet
  facet normal +0.0000000E+00 -8.0901699E-01 -5.8778525E-01
    outer loop      
      vertex   +0.0000000E+00 -2.1108198E+01 -1.3395669E+01
      vertex   -1.0000000E+02 -2.1108198E+01 -1.3395669E+01
      vertex   -1.0000000E+02 -1.9262831E+01 -1.5935599E+01
    endloop
  endfacet
  facet normal +0.0000000E+00 -7.2896862E-01 -6.8454710E-01
    outer loop      
      vertex   +0.0000000E+00 -1.9262831E+01 -1.5935599E+01
      vertex   -1.0000000E+02 -1.9262831E+01 -1.5935599E+01
      vertex   -1.0000000E+02 -1.7113677E+01 -1.8224215E+01
    endloop
  endfacet
  facet normal +0.0000000E+00 -6.3742398E-01 -7.7051324E-01
    outer loop      
      vertex   +0.0000000E+00 -1.7113677E+01 -1.8224215E+01
      vertex   -1.0000000E+02 -1.7113677E+01 -1.8224215E+01
      vertex   -1.0000000E+02 -1.4694631E+01 -2.0225424E+01
    endloop
  endfacet
  facet normal +0.0000000E+00 -5.3582679E-01 -8.4432792E-01
    outer loop      
      vertex   +0.0000000E+00 -1.4694631E+01 -2.0225424E+01
      vertex   -1.0000000E+02 -1.4694631E+01 -2.0225424E+01
      vertex   -1.0000000E+02 -1.2043841E+01 -2.1907667E+01
    endloop
  endfacet
  facet normal +0.0000000E+00 -4.2577929E-01 -9.0482705E-01
    outer loop      
      vertex   +0.0000000E+00 -1.2043841E+01 -2.1907667E+01
      vertex   -1.0000000E+02 -1.2043841E+01 -2.1907667E+01
      vertex   -1.0000000E+02 -9.2031138E+00 -2.3244412E+01
    endloop
  endfacet
  facet normal +0.0000000E+00 -3.0901699E-01 -9.5105651E-01
    outer loop      
      vertex   +0.0000000E+00 -9.2031138E+00 -2.3244412E+01
      vertex   -1.0000000E+02 -9.2031138E+00 -2.3244412E+01
      vertex   -1.0000000E+02 -6.2172471E+00 -2.4214579E+01
    endloop
  endfacet
  facet normal +0.0000000E+00 -1.8738131E-01 -9.8228725E-01
    outer loop      
      vertex   +0.0000000E+00 -6.2172471E+00 -2.4214579E+01
      vertex   -1.0000000E+02 -6.2172471E+00 -2.4214579E+01
      vertex   -1.0000000E+02 -3.1333308E+00 -2.4802867E+01
    endloop
  endfacet
  facet normal +0.0000000E+00 -6.2790519E-02 -9.9802672E-01
    outer loop      
      vertex   +0.0000000E+00 -3.1333308E+00 -2.4802867E+01
      vertex   -1.0000000E+02 -3.1333308E+00 -2.4802867E+01
      vertex   -1.0000000E+02 +0.0000000E+00 -2.5000000E+01
    endloop
  endfacet
  facet normal +0.0000000E+00 +6.2790519E-02 -9.9802672E-01
    outer loop      
      vertex   +0.0000000E+00 +0.0000000E+00 -2.5000000E+01
      vertex   -1.0000000E+02 +0.0000000E+00 -2.5000000E+01
      vertex   -1.0000000E+02 +3.1333308E+00 -2.4802867E+01
    endloop
  endfacet
  facet normal +0.0000000E+00 +1.8738131E-01 -9.8228725E-01
    outer loop      
      vertex   +0.0000000E+00 +3.1333308E+00 -2.4802867E+01
      vertex   -1.0000000E+02 +3.1333308E+00 -2.4802867E+01
      vertex   -1.0000000E+02 +6.2172471E+00 -2.4214579E+01
    endloop
  endfacet
  facet normal +0.0000000E+00 +3.0901699E-01 -9.5105651E-01
    outer loop      
      vertex   +0.0000000E+00 +6.2172471E+00 -2.4214579E+01
      vertex   -1.0000000E+02 +6.2172471E+00 -2.4214579E+01
      vertex   -1.0000000E+02 +9.2031138E+00 -2.3244412E+01
    endloop
  endfacet
  facet normal +0.0000000E+00 +4.2577929E-01 -9.0482705E-01
    outer loop      
      vertex   +0.0000000E+00 +9.2031138E+00 -2.3244412E+01
      vertex   -1.0000000E+02 +9.2031138E+00 -2.3244412E+01
      vertex   -1.0000000E+02 +1.2043841E+01 -2.1907667E+01
    endloop
  endfacet
  facet normal +0.0000000E+00 +5.3582679E-01 -8.4432792E-01
    outer loop      
      vertex   +0.0000000E+00 +1.2043841E+01 -2.1907667E+01
      vertex   -1.0000000E+02 +1.2043841E+01 -2.1907667E+01
      vertex   -1.0000000E+02 +1.4694631E+01 -2.0225424E+01
    endloop
  endfacet
  facet normal +0.0000000E+00 +6.3742398E-01 -7.7051324E-01
    outer loop      
      vertex   +0.0000000E+00 +1.4694631E+01 -2.0225424E+01
      vertex   -1.0000000E+02 +1.4694631E+01 -2.0225424E+01
      vertex   -1.0000000E+02 +1.7113677E+01 -1.8224215E+01
    endloop
  endfacet
  facet normal +0.0000000E+00 +7.2896862E-01 -6.8454710E-01
    outer loop      
      vertex   +0.0000000E+00 +1.7113677E+01 -1.8224215E+01
      vertex   -1.0000000E+02 +1.7113677E+01 -1.8224215E+01
      vertex   -1.0000000E+02 +1.9262831E+01 -1.5935599E+01
    endloop
  endfacet
  facet normal +0.0000000E+00 +8.0901699E-01 -5.8778525E-01
    outer loop      
      vertex   +0.0000000E+00 +1.9262831E+01 -1.5935599E+01
      vertex   -1.0000000E+02 +1.9262831E+01 -1.5935599E+01
      vertex   -1.0000000E+02 +2.1108198E+01 -1.3395669E+01
    endloop
  endfacet
  facet normal +0.0000000E+00 +8.7630668E-01 -4.8175367E-01
    outer loop      
      vertex   +0.0000000E+00 +2.1108198E+01 -1.3395669E+01
      vertex   -1.0000000E+02 +2.1108198E+01 -1.3395669E+01
      vertex   -1.0000000E+02 +2.2620676E+01 -1.0644482E+01
    endloop
  endfacet
  facet normal +0.0000000E+00 +9.2977648E-01 -3.6812455E-01
    outer loop      
      vertex   +0.0000000E+00 +2.2620676E+01 -1.0644482E+01
      vertex   -1.0000000E+02 +2.2620676E+01 -1.0644482E+01
      vertex   -1.0000000E+02 +2.3776412E+01 -7.7254248E+00
    endloop
  endfacet
  facet normal +0.0000000E+00 +9.6858316E-01 -2.4868988E-01
    outer loop      
      vertex   +0.0000000E+00 +2.3776412E+01 -7.7254248E+00
      vertex   -1.0000000E+02 +2.3776412E+01 -7.7254248E+00
      vertex   -1.0000000E+02 +2.4557181E+01 -4.6845328E+00
    endloop
  endfacet
  facet normal +0.0000000E+00 +9.9211470E-01 -1.2533323E-01
    outer loop      
      vertex   +0.0000000E+00 +2.4557181E+01 -4.6845328E+00
      vertex   -1.0000000E+02 +2.4557181E+01 -4.6845328E+00
      vertex   -1.0000000E+02 +2.4950668E+01 -1.5697629E+00
    endloop
  endfacet
  facet normal +0.0000000E+00 +1.0000000E+00 +0.0000000E+00
    outer loop      
      vertex   +0.0000000E+00 +2.4950668E+01 -1.5697629E+00
      vertex   -1.0000000E+02 +2.4950668E+01 -1.5697629E+00
      vertex   -1.0000000E+02 +2.4950668E+01 +1.5697629E+00
    endloop
  endfacet
  facet normal +0.0000000E+00 +9.9211470E-01 +1.2533323E-01
    outer loop      
      vertex   +0.0000000E+00 +2.4950668E+01 +1.5697629E+00
      vertex   -1.0000000E+02 +2.4950668E+01 +1.5697629E+00
      vertex   -1.0000000E+02 +2.4557181E+01 +4.6845328E+00
    endloop
  endfacet
  facet normal +0.0000000E+00 +9.6858316E-01 +2.4868988E-01
    outer loop      
      vertex   +0.0000000E+00 +2.4557181E+01 +4.6845328E+00
      vertex   -1.0000000E+02 +2.4557181E+01 +4.6845328E+00
      vertex   -1.0000000E+02 +2.3776412E+01 +7.7254248E+00
    endloop
  endfacet
  facet normal +0.0000000E+00 +9.2977648E-01 +3.6812455E-01
    outer loop      
      vertex   +0.0000000E+00 +2.3776412E+01 +7.7254248E+00
      vertex   -1.0000000E+02 +2.3776412E+01 +7.7254248E+00
      vertex   -1.0000000E+02 +2.2620676E+01 +1.0644482E+01
    endloop
  endfacet
  facet normal +0.0000000E+00 +8.7630668E-01 +4.8175367E-01
    outer loop      
      vertex   +0.0000000E+00 +2.2620676E+01 +1.0644482E+01
      vertex   -1.0000000E+02 +2.2620676E+01 +1.0644482E+01
      vertex   -1.0000000E+02 +2.1108198E+01 +1.3395669E+01
    endloop
  endfacet
  facet normal +0.0000000E+00 +8.0901699E-01 +5.8778525E-01
    outer loop      
      vertex   +0.0000000E+00 +2.1108198E+01 +1.3395669E+01
      vertex   -1.0000000E+02 +2.1108198E+01 +1.3395669E+01
      vertex   -1.0000000E+02 +1.9262831E+01 +1.5935599E+01
    endloop
  endfacet
  facet normal +0.0000000E+00 +7.2896862E-01 +6.8454710E-01
    outer loop      
      vertex   +0.0000000E+00 +1.9262831E+01 +1.5935599E+01
      vertex   -1.0000000E+02 +1.9262831E+01 +1.5935599E+01
      vertex   -1.0000000E+02 +1.7113677E+01 +1.8224215E+01
    endloop
  endfacet
  facet normal +0.0000000E+00 +6.3742398E-01 +7.7051324E-01
    outer loop      
      vertex   +0.0000000E+00 +1.7113677E+01 +1.8224215E+01
      vertex   -1.0000000E+02 +1.7113677E+01 +1.8224215E+01
      vertex   -1.0000000E+02 +1.4694631E+01 +2.0225424E+01
    endloop
  endfacet
  facet normal +0.0000000E+00 +5.3582679E-01 +8.4432792E-01
    outer loop      
      vertex   +0.0000000E+00 +1.4694631E+01 +2.0225424E+01
      vertex   -1.0000000E+02 +1.4694631E+01 +2.0225424E+01
      vertex   -1.0000000E+02 +1.2043841E+01 +2.1907667E+01
    endloop
  endfacet
  facet normal +0.0000000E+00 +4.2577929E-01 +9.0482705E-01
    outer loop      
      vertex   +0.0000000E+00 +1.2043841E+01 +2.1907667E+01
      vertex   -1.0000000E+02 +1.2043841E+01 +2.1907667E+01
      vertex   -1.0000000E+02 +9.2031138E+00 +2.3244412E+01
    endloop
  endfacet
  facet normal +0.0000000E+00 +3.0901699E-01 +9.5105651E-01
    outer loop      
      vertex   +0.0000000E+00 +9.2031138E+00 +2.3244412E+01
      vertex   -1.0000000E+02 +9.2031138E+00 +2.3244412E+01
      vertex   -1.0000000E+02 +6.2172471E+00 +2.4214579E+01
    endloop
  endfacet
  facet normal +0.0000000E+00 +1.8738131E-01 +9.8228725E-01
    outer loop      
      vertex   +0.0000000E+00 +6.2172471E+00 +2.4214579E+01
      vertex   -1.0000000E+02 +6.2172471E+00 +2.4214579E+01
      vertex   -1.0000000E+02 +3.1333308E+00 +2.4802867E+01
    endloop
  endfacet
  facet normal +0.0000000E+00 +6.2790519E-02 +9.9802672E-01
    outer loop      
      vertex   +0.0000000E+00 +3.1333308E+00 +2.4802867E+01
      vertex   -1.0000000E+02 +3.1333308E+00 +2.4802867E+01
      vertex   -1.0000000E+02 +0.0000000E+00 +2.5000000E+01
    endloop
  endfacet
  facet normal +1.0000000E+00 +0.0000000E+00 +0.0000000E+00
    outer loop      
      vertex   +0.0000000E+00 +0.0000000E+00 +0.0000000E+00
      vertex   +0.0000000E+00 -3.1333308E+00 +2.4802867E+01
      vertex   +0.0000000E+00 -6.2172471E+00 +2.4214579E+01
    endloop
  endfacet
  facet normal +1.0000000E-00 +0.0000000E+00 +0.0000000E+00
    outer loop      
      vertex   +0.0000000E+00 -6.2172471E+00 +2.4214579E+01
      vertex   +0.0000000E+00 -9.2031138E+00 +2.3244412E+01
      vertex   +0.0000000E+00 +0.0000000E+00 +0.0000000E+00
    endloop
  endfacet
  facet normal +1.0000000E+00 +0.0000000E+00 +0.0000000E+00
    outer loop      
      vertex   +0.0000000E+00 -9.2031138E+00 +2.3244412E+01
      vertex   +0.0000000E+00 -1.2043841E+01 +2.1907667E+01
      vertex   +0.0000000E+00 +0.0000000E+00 +0.0000000E+00
    endloop
  endfacet
  facet normal +1.0000000E+00 +0.0000000E+00 +0.0000000E+00
    outer loop      
      vertex   +0.0000000E+00 -1.2043841E+01 +2.1907667E+01
      vertex   +0.0000000E+00 -1.4694631E+01 +2.0225424E+01
      vertex   +0.0000000E+00 +0.0000000E+00 +0.0000000E+00
    endloop
  endfacet
  facet normal +1.0000000E+00 +0.0000000E+00 +0.0000000E+00
    outer loop      
      vertex   +0.0000000E+00 -1.4694631E+01 +2.0225424E+01
      vertex   +0.0000000E+00 -1.7113677E+01 +1.8224215E+01
      vertex   +0.0000000E+00 +0.0000000E+00 +0.0000000E+00
    endloop
  endfacet
  facet normal +1.0000000E+00 +0.0000000E+00 +0.0000000E+00
    outer loop      
      vertex   +0.0000000E+00 -1.7113677E+01 +1.8224215E+01
      vertex   +0.0000000E+00 -1.9262831E+01 +1.5935599E+01
      vertex   +0.0000000E+00 +0.0000000E+00 +0.0000000E+00
    endloop
  endfacet
  facet normal +1.0000000E+00 +0.0000000E+00 +0.0000000E+00
    outer loop      
      vertex   +0.0000000E+00 -1.9262831E+01 +1.5935599E+01
      vertex   +0.0000000E+00 -2.1108198E+01 +1.3395669E+01
      vertex   +0.0000000E+00 +0.0000000E+00 +0.0000000E+00
    endloop
  endfacet
  facet normal +1.0000000E+00 +0.0000000E+00 +0.0000000E+00
    outer loop      
      vertex   +0.0000000E+00 -2.1108198E+01 +1.3395669E+01
      vertex   +0.0000000E+00 -2.2620676E+01 +1.0644482E+01
      vertex   +0.0000000E+00 +0.0000000E+00 +0.0000000E+00
    endloop
  endfacet
  facet normal +1.0000000E+00 +0.0000000E+00 +0.0000000E+00
    outer loop      
      vertex   +0.0000000E+00 -2.2620676E+01 +1.0644482E+01
      vertex   +0.0000000E+00 -2.3776412E+01 +7.7254248E+00
      vertex   +0.0000000E+00 +0.0000000E+00 +0.0000000E+00
    endloop
  endfacet
  facet normal +1.0000000E-00 +0.0000000E+00 +0.0000000E+00
    outer loop      
      vertex   +0.0000000E+00 -2.3776412E+01 +7.7254248E+00
      vertex   +0.0000000E+00 -2.4557181E+01 +4.6845328E+00
      vertex   +0.0000000E+00 +0.0000000E+00 +0.0000000E+00
    endloop
  endfacet
  facet normal +1.0000000E+00 +0.0000000E+00 +0.0000000E+00
    outer loop      
      vertex   +0.0000000E+00 -2.4557181E+01 +4.6845328E+00
      vertex   +0.0000000E+00 -2.4950668E+01 +1.5697629E+00
      vertex   +0.0000000E+00 +0.0000000E+00 +0.0000000E+00
    endloop
  endfacet
  facet normal +1.0000000E+00 +0.0000000E+00 +0.0000000E+00
    outer loop      
      vertex   +0.0000000E+00 -2.4950668E+01 +1.5697629E+00
      vertex   +0.0000000E+00 -2.4950668E+01 -1.5697629E+00
      vertex   +0.0000000E+00 +0.0000000E+00 +0.0000000E+00
    endloop
  endfacet
  facet normal +1.0000000E+00 +0.0000000E+00 +0.0000000E+00
    outer loop      
      vertex   +0.0000000E+00 -2.4950668E+01 -1.5697629E+00
      vertex   +0.0000000E+00 -2.4557181E+01 -4.6845328E+00
      vertex   +0.0000000E+00 +0.0000000E+00 +0.0000000E+00
    endloop
  endfacet
  facet normal +1.0000000E+00 +0.0000000E+00 +0.0000000E+00
    outer loop      
      vertex   +0.0000000E+00 -2.4557181E+01 -4.6845328E+00
      vertex   +0.0000000E+00 -2.3776412E+01 -7.7254248E+00
      vertex   +0.0000000E+00 +0.0000000E+00 +0.0000000E+00
    endloop
  endfacet
  facet normal +1.0000000E+00 +0.0000000E+00 +0.0000000E+00
    outer loop      
      vertex   +0.0000000E+00 -2.3776412E+01 -7.7254248E+00
      vertex   +0.0000000E+00 -2.2620676E+01 -1.0644482E+01
      vertex   +0.0000000E+00 +0.0000000E+00 +0.0000000E+00
    endloop
  endfacet
  facet normal +1.0000000E+00 +0.0000000E+00 +0.0000000E+00
    outer loop      
      vertex   +0.0000000E+00 -2.2620676E+01 -1.0644482E+01
      vertex   +0.0000000E+00 -2.1108198E+01 -1.3395669E+01
      vertex   +0.0000000E+00 +0.0000000E+00 +0.0000000E+00
    endloop
  endfacet
  facet normal +1.0000000E+00 +0.0000000E+00 +0.0000000E+00
    outer loop      
      vertex   +0.0000000E+00 -2.1108198E+01 -1.3395669E+01
      vertex   +0.0000000E+00 -1.9262831E+01 -1.5935599E+01
      vertex   +0.0000000E+00 +0.0000000E+00 +0.0000000E+00
    endloop
  endfacet
  facet normal +1.0000000E+00 +0.0000000E+00 +0.0000000E+00
    outer loop      
      vertex   +0.0000000E+00 -1.9262831E+01 -1.5935599E+01
      vertex   +0.0000000E+00 -1.7113677E+01 -1.8224215E+01
      vertex   +0.0000000E+00 +0.0000000E+00 +0.0000000E+00
    endloop
  endfacet
  facet normal +1.0000000E+00 +0.0000000E+00 +0.0000000E+00
    outer loop      
      vertex   +0.0000000E+00 -1.7113677E+01 -1.8224215E+01
      vertex   +0.0000000E+00 -1.4694631E+01 -2.0225424E+01
      vertex   +0.0000000E+00 +0.0000000E+00 +0.0000000E+00
    endloop
  endfacet
  facet normal +1.0000000E+00 +0.0000000E+00 +0.0000000E+00
    outer loop      
      vertex   +0.0000000E+00 -1.4694631E+01 -2.0225424E+01
      vertex   +0.0000000E+00 -1.2043841E+01 -2.1907667E+01
      vertex   +0.0000000E+00 +0.0000000E+00 +0.0000000E+00
    endloop
  endfacet
  facet normal +1.0000000E+00 +0.0000000E+00 +0.0000000E+00
    outer loop      
      vertex   +0.0000000E+00 -1.2043841E+01 -2.1907667E+01
      vertex   +0.0000000E+00 -9.2031138E+00 -2.3244412E+01
      vertex   +0.0000000E+00 +0.0000000E+00 +0.0000000E+00
    endloop
  endfacet
  facet normal +1.0000000E+00 +0.0000000E+00 +0.0000000E+00
    outer loop      
      vertex   +0.0000000E+00 -9.2031138E+00 -2.3244412E+01
      vertex   +0.0000000E+00 -6.2172471E+00 -2.4214579E+01
      vertex   +0.0000000E+00 +0.0000000E+00 +0.0000000E+00
    endloop
  endfacet
  facet normal +1.0000000E+00 +0.0000000E+00 +0.0000000E+00
    outer loop      
      vertex   +0.0000000E+00 -6.2172471E+00 -2.4214579E+01
      vertex   +0.0000000E+00 -3.1333308E+00 -2.4802867E+01
      vertex   +0.0000000E+00 +0.0000000E+00 +0.0000000E+00
    endloop
  endfacet
  facet normal +1.0000000E-00 +0.0000000E+00 +0.0000000E+00
    outer loop      
      vertex   +0.0000000E+00 -3.1333308E+00 -2.4802867E+01
      vertex   +0.0000000E+00 +0.0000000E+00 -2.5000000E+01
      vertex   +0.0000000E+00 +0.0000000E+00 +0.0000000E+00
    endloop
  endfacet
  facet normal +1.0000000E+00 +0.0000000E+00 +0.0000000E+00
    outer loop      
      vertex   +0.0000000E+00 +0.0000000E+00 -2.5000000E+01
      vertex   +0.0000000E+00 +3.1333308E+00 -2.4802867E+01
      vertex   +0.0000000E+00 +0.0000000E+00 +0.0000000E+00
    endloop
  endfacet
  facet normal +1.0000000E+00 +0.0000000E+00 +0.0000000E+00
    outer loop      
      vertex   +0.0000000E+00 +3.1333308E+00 -2.4802867E+01
      vertex   +0.0000000E+00 +6.2172471E+00 -2.4214579E+01
      vertex   +0.0000000E+00 +0.0000000E+00 +0.0000000E+00
    endloop
  endfacet
  facet normal +1.0000000E+00 +0.0000000E+00 +0.0000000E+00
    outer loop      
      vertex   +0.0000000E+00 +6.2172471E+00 -2.4214579E+01
      vertex   +0.0000000E+00 +9.2031138E+00 -2.3244412E+01
      vertex   +0.0000000E+00 +0.0000000E+00 +0.0000000E+00
    endloop
  endfacet
  facet normal +1.0000000E+00 +0.0000000E+00 +0.0000000E+00
    outer loop      
      vertex   +0.0000000E+00 +9.2031138E+00 -2.3244412E+01
      vertex   +0.0000000E+00 +1.2043841E+01 -2.1907667E+01
      vertex   +0.0000000E+00 +0.0000000E+00 +0.0000000E+00
    endloop
  endfacet
  facet normal +1.0000000E+00 +0.0000000E+00 +0.0000000E+00
    outer loop      
      vertex   +0.0000000E+00 +1.2043841E+01 -2.1907667E+01
      vertex   +0.0000000E+00 +1.4694631E+01 -2.0225424E+01
      vertex   +0.0000000E+00 +0.0000000E+00 +0.0000000E+00
    endloop
  endfacet
  facet normal +1.0000000E-00 +0.0000000E+00 +0.0000000E+00
    outer loop      
      vertex   +0.0000000E+00 +1.4694631E+01 -2.0225424E+01
      vertex   +0.0000000E+00 +1.7113677E+01 -1.8224215E+01
      vertex   +0.0000000E+00 +0.0000000E+00 +0.0000000E+00
    endloop
  endfacet
  facet normal +1.0000000E+00 +0.0000000E+00 +0.0000000E+00
    outer loop      
      vertex   +0.0000000E+00 +1.7113677E+01 -1.8224215E+01
      vertex   +0.0000000E+00 +1.9262831E+01 -1.5935599E+01
      vertex   +0.0000000E+00 +0.0000000E+00 +0.0000000E+00
    endloop
  endfacet
  facet normal +1.0000000E+00 +0.0000000E+00 +0.0000000E+00
    outer loop      
      vertex   +0.0000000E+00 +1.9262831E+01 -1.5935599E+01
      vertex   +0.0000000E+00 +2.1108198E+01 -1.3395669E+01
      vertex   +0.0000000E+00 +0.0000000E+00 +0.0000000E+00
    endloop
  endfacet
  facet normal +1.0000000E+00 +0.0000000E+00 +0.0000000E+00
    outer loop      
      vertex   +0.0000000E+00 +2.1108198E+01 -1.3395669E+01
      vertex   +0.0000000E+00 +2.2620676E+01 -1.0644482E+01
      vertex   +0.0000000E+00 +0.0000000E+00 +0.0000000E+00
    endloop
  endfacet
  facet normal +1.0000000E+00 +0.0000000E+00 +0.0000000E+00
    outer loop      
      vertex   +0.0000000E+00 +2.2620676E+01 -1.0644482E+01
      vertex   +0.0000000E+00 +2.3776412E+01 -7.7254248E+00
      vertex   +0.0000000E+00 +0.0000000E+00 +0.0000000E+00
    endloop
  endfacet
  facet normal +1.0000000E+00 +0.0000000E+00 +0.0000000E+00
    outer loop      
      vertex   +0.0000000E+00 +2.3776412E+01 -7.7254248E+00
      vertex   +0.0000000E+00 +2.4557181E+01 -4.6845328E+00
      vertex   +0.0000000E+00 +0.0000000E+00 +0.0000000E+00
    endloop
  endfacet
  facet normal +1.0000000E+00 +0.0000000E+00 +0.0000000E+00
    outer loop      
      vertex   +0.0000000E+00 +2.4557181E+01 -4.6845328E+00
      vertex   +0.0000000E+00 +2.4950668E+01 -1.5697629E+00
      vertex   +0.0000000E+00 +0.0000000E+00 +0.0000000E+00
    endloop
  endfacet
  facet normal +1.0000000E+00 +0.0000000E+00 +0.0000000E+00
    outer loop      
      vertex   +0.0000000E+00 +2.4950668E+01 -1.5697629E+00
      vertex   +0.0000000E+00 +2.4950668E+01 +1.5697629E+00
      vertex   +0.0000000E+00 +0.0000000E+00 +0.0000000E+00
    endloop
  endfacet
  facet normal +1.0000000E+00 +0.0000000E+00 +0.0000000E+00
    outer loop      
      vertex   +0.0000000E+00 +2.4950668E+01 +1.5697629E+00
      vertex   +0.0000000E+00 +2.4557181E+01 +4.6845328E+00
      vertex   +0.0000000E+00 +0.0000000E+00 +0.0000000E+00
    endloop
  endfacet
  facet normal +1.0000000E+00 +0.0000000E+00 +0.0000000E+00
    outer loop      
      vertex   +0.0000000E+00 +2.4557181E+01 +4.6845328E+00
      vertex   +0.0000000E+00 +2.3776412E+01 +7.7254248E+00
      vertex   +0.0000000E+00 +0.0000000E+00 +0.0000000E+00
    endloop
  endfacet
  facet normal +1.0000000E+00 +0.0000000E+00 +0.0000000E+00
    outer loop      
      vertex   +0.0000000E+00 +2.3776412E+01 +7.7254248E+00
      vertex   +0.0000000E+00 +2.2620676E+01 +1.0644482E+01
      vertex   +0.0000000E+00 +0.0000000E+00 +0.0000000E+00
    endloop
  endfacet
  facet normal +1.0000000E+00 +0.0000000E+00 +0.0000000E+00
    outer loop      
      vertex   +0.0000000E+00 +2.2620676E+01 +1.0644482E+01
      vertex   +0.0000000E+00 +2.1108198E+01 +1.3395669E+01
      vertex   +0.0000000E+00 +0.0000000E+00 +0.0000000E+00
    endloop
  endfacet
  facet normal +1.0000000E+00 +0.0000000E+00 +0.0000000E+00
    outer loop      
      vertex   +0.0000000E+00 +2.1108198E+01 +1.3395669E+01
      vertex   +0.0000000E+00 +1.9262831E+01 +1.5935599E+01
      vertex   +0.0000000E+00 +0.0000000E+00 +0.0000000E+00
    endloop
  endfacet
  facet normal +1.0000000E+00 +0.0000000E+00 +0.0000000E+00
    outer loop      
      vertex   +0.0000000E+00 +1.9262831E+01 +1.5935599E+01
      vertex   +0.0000000E+00 +1.7113677E+01 +1.8224215E+01
      vertex   +0.0000000E+00 +0.0000000E+00 +0.0000000E+00
    endloop
  endfacet
  facet normal +1.0000000E+00 +0.0000000E+00 +0.0000000E+00
    outer loop      
      vertex   +0.0000000E+00 +1.7113677E+01 +1.8224215E+01
      vertex   +0.0000000E+00 +1.4694631E+01 +2.0225424E+01
      vertex   +0.0000000E+00 +0.0000000E+00 +0.0000000E+00
    endloop
  endfacet
  facet normal +1.0000000E+00 +0.0000000E+00 +0.0000000E+00
    outer loop      
      vertex   +0.0000000E+00 +1.4694631E+01 +2.0225424E+01
      vertex   +0.0000000E+00 +1.2043841E+01 +2.1907667E+01
      vertex   +0.0000000E+00 +0.0000000E+00 +0.0000000E+00
    endloop
  endfacet
  facet normal +1.0000000E+00 +0.0000000E+00 +0.0000000E+00
    outer loop      
      vertex   +0.0000000E+00 +1.2043841E+01 +2.1907667E+01
      vertex   +0.0000000E+00 +9.2031138E+00 +2.3244412E+01
      vertex   +0.0000000E+00 +0.0000000E+00 +0.0000000E+00
    endloop
  endfacet
  facet normal +1.0000000E+00 +0.0000000E+00 +0.0000000E+00
    outer loop      
      vertex   +0.0000000E+00 +9.2031138E+00 +2.3244412E+01
      vertex   +0.0000000E+00 +6.2172471E+00 +2.4214579E+01
      vertex   +0.0000000E+00 +0.0000000E+00 +0.0000000E+00
    endloop
  endfacet
  facet normal +1.0000000E+00 +0.0000000E+00 +0.0000000E+00
    outer loop      
      vertex   +0.0000000E+00 +6.2172471E+00 +2.4214579E+01
      vertex   +0.0000000E+00 +3.1333308E+00 +2.4802867E+01
      vertex   +0.0000000E+00 +0.0000000E+00 +0.0000000E+00
    endloop
  endfacet
  facet normal +1.0000000E+00 +0.0000000E+00 +0.0000000E+00
    outer loop      
      vertex   +0.0000000E+00 +3.1333308E+00 +2.4802867E+01
      vertex   +0.0000000E+00 +0.0000000E+00 +2.5000000E+01
      vertex   +0.0000000E+00 +0.0000000E+00 +0.0000000E+00
    endloop
  endfacet
  facet normal +1.0000000E+00 +0.0000000E+00 +0.0000000E+00
    outer loop      
      vertex   +0.0000000E+00 +0.0000000E+00 +2.5000000E+01
      vertex   +0.0000000E+00 -3.1333308E+00 +2.4802867E+01
      vertex   +0.0000000E+00 +0.0000000E+00 +0.0000000E+00
    endloop
  endfacet
endsolid
